<!--?xml version="1.0" encoding="utf-8"?-->
<!-- Svg Vector Icons : http://www.onlinewebfonts.com/icon -->

<svg version="1.1" xmlns="http://www.w3.org/2000/svg" xmlns:xlink="http://www.w3.org/1999/xlink" x="0px" y="0px" viewBox="0 0 256 256" enable-background="new 0 0 256 256" xml:space="preserve">
<metadata> Svg Vector Icons : http://www.onlinewebfonts.com/icon </metadata>
<g><g><path fill="#03058e" data-title="Layer 0" xs="0" d="M88.7,14.9c16.3,0,29.5,13.2,29.5,29.5S105,73.9,88.7,73.9c-16.3,0-29.5-13.2-29.5-29.5S72.4,14.9,88.7,14.9z"/><path fill="#03058e" data-title="Layer 1" xs="1" d="M167.3,14.9c16.3,0,29.5,13.2,29.5,29.5s-13.2,29.5-29.5,29.5c-16.3,0-29.5-13.2-29.5-29.5S151,14.9,167.3,14.9z"/><path fill="#03058e" data-title="Layer 2" xs="2" d="M128,123.1c16.3,0,29.5,13.2,29.5,29.5c0,16.3-13.2,29.5-29.5,29.5c-16.3,0-29.5-13.2-29.5-29.5C98.5,136.3,111.7,123.1,128,123.1z"/><path fill="#03058e" data-title="Layer 3" xs="3" d="M146.7,187c-5.9,2.9-11.8,4.9-18.7,4.9c-6.9,0-12.8-2-18.7-4.9c-11.8,6.9-20.7,19.7-20.7,34.4c0,4.9,0,11.8,0,11.8s9.8,7.9,39.3,7.9s39.3-7.9,39.3-7.9s0-7.9,0-11.8C167.3,206.7,158.5,193.9,146.7,187z"/><path fill="#03058e" data-title="Layer 4" xs="4" d="M206.7,73.9c16.3,0,29.5,13.2,29.5,29.5c0,16.3-13.2,29.5-29.5,29.5c-16.3,0-29.5-13.2-29.5-29.5S190.4,73.9,206.7,73.9z"/><path fill="#03058e" data-title="Layer 5" xs="5" d="M225.4,137.8c-5.9,2.9-11.8,4.9-18.7,4.9c-6.9,0-12.8-2-18.7-4.9c-11.8,6.9-20.6,19.7-20.6,34.4c0,4.9,0,11.8,0,11.8s9.8,7.9,39.3,7.9c29.5,0,39.3-7.9,39.3-7.9s0-7.9,0-11.8C246,157.5,237.1,144.7,225.4,137.8z"/><path fill="#03058e" data-title="Layer 6" xs="6" d="M49.3,73.9c16.3,0,29.5,13.2,29.5,29.5c0,16.3-13.2,29.5-29.5,29.5c-16.3,0-29.5-13.2-29.5-29.5S33,73.9,49.3,73.9z"/><path fill="#03058e" data-title="Layer 7" xs="7" d="M68,137.8c-5.9,2.9-11.8,4.9-18.7,4.9s-12.8-2-18.7-4.9C18.8,144.7,10,157.5,10,172.3c0,4.9,0,11.8,0,11.8s9.8,7.9,39.3,7.9s39.3-7.9,39.3-7.9s0-7.9,0-11.8C88.7,157.5,79.8,144.7,68,137.8z"/></g></g>
</svg>