<?xml version="1.0" encoding="utf-8"?>
<!-- Svg Vector Icons : http://www.onlinewebfonts.com/icon -->
<!DOCTYPE svg PUBLIC "-//W3C//DTD SVG 1.1//EN" "http://www.w3.org/Graphics/SVG/1.1/DTD/svg11.dtd">
<svg version="1.1" xmlns="http://www.w3.org/2000/svg" xmlns:xlink="http://www.w3.org/1999/xlink" x="0px" y="0px" viewBox="0 0 256 256" enable-background="new 0 0 256 256" xml:space="preserve">
<metadata> Svg Vector Icons : http://www.onlinewebfonts.com/icon </metadata>
<g><g><g><path fill="#000000" d="M18.2,12.8c-2.9,1.4-5.5,4-6.9,6.8l-1.1,2.2L10,116.4c-0.1,82.6,0,94.9,0.6,96.9c0.9,2.9,3.7,6.3,6.7,8.2l2.2,1.3l42.2,0.1l42.2,0.1l1.1-1c1.6-1.5,1.5-4.2-0.1-5.5c-1.3-1-1.5-1-42.7-1H20.8l-1.5-1.4l-1.6-1.4v-77.5V57.7l98-0.1l98-0.1V76c0,19.1,0.2,21.1,1.9,22c1.5,0.8,3.5,0.5,4.6-0.6l1-1.1V59c0-35.4,0-37.3-0.9-39.1c-1.3-2.8-4-5.6-6.8-7l-2.4-1.2h-95.3H20.6L18.2,12.8z M212.3,20.6l1.4,1.4v14v14h-98.1H17.4l0.1-14l0.1-14l1.6-1.4l1.5-1.4h95.1H211L212.3,20.6z"/><path fill="#000000" d="M51.2,24.5c-1.7,0.8-2.1,2.5-2.1,8.7c0,7.6,0.7,9.2,4.1,9.2c0.7,0,1.7-0.5,2.3-1.2c1.1-1.1,1.2-1.3,1.2-8c0-6.7,0-6.9-1.2-8C54.3,23.9,52.8,23.7,51.2,24.5z"/><path fill="#000000" d="M176.1,25.1c-1.3,1.1-1.3,1.2-1.5,7.1c-0.2,6.8,0,7.8,1.4,9.2c1.3,1.2,3.2,1.2,4.8,0l1.2-0.9v-7.3v-7.3l-1.2-0.9C179.2,23.6,177.7,23.7,176.1,25.1z"/><path fill="#000000" d="M33,66.8l-1,0.8V134v66.5l1,1c0.9,1,1.2,1,28.7,1.1c20.6,0.1,28,0,29.1-0.4c2.6-1.1,3.1-4.8,0.8-6.6c-1-0.8-1.9-0.9-8.2-0.9h-7v-12.3v-12.3h6.8c3.7,0,7.2-0.1,7.6-0.3c1.1-0.4,2.3-2.9,1.9-4.2c-0.2-0.6-0.8-1.6-1.3-2.1c-0.9-0.8-1.6-0.9-8-0.9h-7v-12.3v-12.3h9.4c9.4,0,9.5,0,10.6-1.2c1.2-1.2,1.6-3.4,0.7-5c-0.8-1.5-3.2-1.9-12.1-1.9h-8.7v-12v-12h14.6h14.6v1.4c0,1.9,0.9,4.2,1.9,4.8c1.5,0.8,3.7,0.5,4.7-0.5c0.9-0.9,1.1-1.8,0.9-4.3l0-1.2l5.2-0.2c5.1-0.1,5.3-0.2,6.4-1.5c1.2-1.5,1.4-2.5,0.6-4.2c-0.8-1.7-2.4-2.2-7.5-2.2h-4.7V85.7V73.5h14.9h14.8v7.5c0,7.4,0,7.5,1.2,8.6c1.6,1.6,3.8,1.5,5.3-0.2c1-1.2,1.1-1.6,1.1-8.6v-7.3h14.6h14.6V78c0,5.1,0.5,6.6,2.5,7.6c1.2,0.6,1.6,0.5,2.9-0.1c0.9-0.4,1.7-1.2,1.8-1.8c0.1-0.6,0.3-4.3,0.4-8.3c0.2-7.1,0.2-7.3-0.9-8.4l-1.1-1.1h-75.7C38.2,65.9,34,66,33,66.8z M68.9,85.7V98H54.3H39.7V85.7V73.5h14.6h14.6V85.7z M105.7,85.7V98H91.1H76.4V85.7V73.5h14.6h14.6L105.7,85.7L105.7,85.7z M68.9,118v12H54.3H39.7v-12v-12h14.6h14.6V118z M68.9,150.3v12.3H54.3H39.7v-12.3v-12.3h14.6h14.6V150.3z M68.9,182.4v12.3H54.3H39.7v-12.3v-12.3h14.6h14.6V182.4z"/><path fill="#000000" d="M161.6,98.7c-28.5,4.6-51,24.4-59,51.9c-4,13.7-3.7,30,0.7,43.6c6.6,20.3,22.6,37.4,42.2,45c9.4,3.6,17.6,5.1,27.8,5.1c31.6-0.1,58.5-19.2,68.8-48.6c3.1-8.9,3.9-13.7,3.9-24.7c0-8.2-0.2-10.4-1.1-14.6c-2.1-10-5.6-18.3-10.8-26.2c-10.6-16-26.3-26.6-45.9-30.9C182.3,98,167.8,97.7,161.6,98.7z M183.8,105.8c13.6,2.4,25.7,8.7,35.8,18.9c9.5,9.4,15.6,20.5,18.4,33.3c1.2,5.6,1.5,17.7,0.5,23.6c-3.8,22.9-20,42.9-41.6,51.4c-20.5,8.1-42.5,5.5-61.2-7.3c-5.4-3.7-13.3-11.6-17-17c-11-16.2-14.5-35-9.9-53.3c6.4-25.1,27.8-45,53.3-49.5C167.2,104.9,178.6,104.9,183.8,105.8z"/><path fill="#000000" d="M172.4,120.6c-2.6,1-2.5,0.5-2.5,27.2c0,24.1,0,24.6,1,25.8l0.9,1.2h25.6H223l1-1.1c1.4-1.5,1.4-3.8-0.1-5.3l-1.1-1.2H200h-22.6V145v-22.4l-1-0.9C175,120.5,173.6,120.1,172.4,120.6z"/></g></g></g>
</svg>