<!--?xml version="1.0" encoding="utf-8"?-->
<!-- Svg Vector Icons : http://www.onlinewebfonts.com/icon -->

<svg version="1.1" xmlns="http://www.w3.org/2000/svg" xmlns:xlink="http://www.w3.org/1999/xlink" x="0px" y="0px" viewBox="0 0 256 256" enable-background="new 0 0 256 256" xml:space="preserve">
<metadata> Svg Vector Icons : http://www.onlinewebfonts.com/icon </metadata>
<g><g><g><path fill="#0a2ea0" data-title="Layer 0" xs="0" d="M10,113.9v75.2h57.4c31.6,0,57.4-0.1,57.4-0.2s-1.8-0.8-3.9-1.4c-2.2-0.7-4.9-1.7-6-2.2c-1.9-1-4-1-51-1h-49v-70.4V43.6h82.5H180v24.4v24.4h2.4h2.4V65.5V38.7H97.4H10V113.9z"/><path fill="#0a2ea0" data-title="Layer 1" xs="1" d="M97.7,62.2v3H131h33.3v-3v-3H131H97.7V62.2z"/><path fill="#0a2ea0" data-title="Layer 2" xs="2" d="M97.7,74.7v3H131h33.3v-3v-3H131H97.7V74.7z"/><path fill="#0a2ea0" data-title="Layer 3" xs="3" d="M80.4,75.9l-1.2,1l7.7,23l7.6,23l-1.4,1c-1.7,1.2-4,5.9-4,8c0,3.4,5.2,17.4,10,27.1c8.6,17.2,16.1,23.8,30.3,26.4c1.7,0.3,3.2,0.7,3.4,0.8c0.1,0.1-0.5,1.5-1.5,3.1c-3.5,6.5-6,15.3-6.8,23.9l-0.4,4.2h60.9c33.5,0,60.9-0.2,60.9-0.4c-0.1-2.9-1.4-11.4-2.2-14.8c-3.4-13.4-12.1-26-23.4-34c-4-2.8-14.1-8.1-15.6-8.1c-0.4,0,1-1.6,3.1-3.5c2.1-1.9,4.8-4.9,5.9-6.6c11.4-17.2,5.4-40.5-12.7-49.9c-6.1-3.2-10-4-17.4-3.7c-5,0.2-7,0.5-10.2,1.6c-13.9,5-23,17.9-23.1,32.4c0,6.3,0.8,9.7,3.6,15.7c1.8,3.8,3,5.4,7,9.3c2.7,2.7,4.5,4.8,4.1,4.8c-0.4,0-2.4,0.8-4.5,1.8c-3.2,1.6-4.7,1.9-10.8,2.5c-10.5,1-20.6-0.3-23.7-3.1c-3.4-3-10-15.7-13.6-26.1c-1.1-3.1-2.5-6.7-3.1-8c-1.4-3-4.6-5.1-7.9-5.5l-2.6-0.2l-7.5-22.6c-4.1-12.4-7.8-22.8-8.3-23.2C82,74.7,81.8,74.8,80.4,75.9z"/><path fill="#0a2ea0" data-title="Layer 4" xs="4" d="M97.7,86.6v3H131h33.3v-3v-3H131H97.7V86.6z"/></g></g></g>
</svg>