<!--?xml version="1.0" encoding="utf-8"?-->
<!-- Svg Vector Icons : http://www.onlinewebfonts.com/icon -->

<svg version="1.1" xmlns="http://www.w3.org/2000/svg" xmlns:xlink="http://www.w3.org/1999/xlink" x="0px" y="0px" viewBox="0 0 256 256" enable-background="new 0 0 256 256" xml:space="preserve">
<metadata> Svg Vector Icons : http://www.onlinewebfonts.com/icon </metadata>
<g><g><path fill="#d51414" data-title="Layer 0" xs="0" d="M66.8,207.5v-83.9H76v-10.4H29v9.5h9.2v84.8H66.8L66.8,207.5z M14.2,104c0,0,227.4,0,227.7,0c5.5-2.4,5.3-7.5,0.1-11c-5.2-3.4-114.1-82.1-114.1-82.1S19.7,89.6,14.2,93C8.8,96.5,8.4,101.6,14.2,104z M127.9,49.8c9.1,0,16.5,7.4,16.5,16.5s-7.4,16.5-16.5,16.5c-9.1,0-16.5-7.4-16.5-16.5S118.8,49.8,127.9,49.8z M19.9,226.3h216.4v-9.2H19.9V226.3L19.9,226.3z M10.5,245.1h235.2v-8.6H10.5V245.1L10.5,245.1z M142.4,207.5V123h9.2v-9.2h-47v8.9h9.2v84.8H142.4L142.4,207.5z M217.5,207.5V123h9.2v-9.2h-47v8.9h9.2v84.8H217.5L217.5,207.5z"/></g></g>
</svg>